<svg width="16" height="16" viewBox="0 0 16 16" fill="none" xmlns="http://www.w3.org/2000/svg">
<g clip-path="url(#clip0_221_30)">
<path d="M8.00012 2.7481L7.28312 2.0111C5.60012 0.281099 2.51412 0.878099 1.40012 3.0531C0.918123 3.9951 0.780123 5.3231 1.50812 7.0001H0.430123C-1.69788 1.3031 4.59512 -1.8299 7.82412 1.1431C7.88412 1.19843 7.94279 1.25543 8.00012 1.3141C8.05645 1.25506 8.11517 1.19835 8.17612 1.1441C11.4061 -1.8299 17.6981 1.3031 15.5701 7.0001H14.4921C15.2201 5.3231 15.0821 3.9951 14.6001 3.0531C13.4861 0.878099 10.4001 0.280099 8.71712 2.0101L8.00012 2.7481ZM2.21212 10.0001H3.52712C4.59312 11.1831 6.05012 12.4581 8.00012 13.7951C9.94912 12.4581 11.4071 11.1831 12.4731 10.0001H13.7881C12.5231 11.5661 10.6481 13.2501 8.00012 15.0001C5.35212 13.2501 3.47712 11.5661 2.21212 10.0001Z" fill="#FF3B3B"/>
<path d="M10.464 3.314C10.4252 3.21718 10.3571 3.13492 10.2692 3.07873C10.1814 3.02255 10.0781 2.99524 9.97398 3.00064C9.86982 3.00604 9.76996 3.04388 9.68838 3.10885C9.60679 3.17383 9.54757 3.26269 9.519 3.363L7.921 8.956L6.464 5.314C6.43007 5.22951 6.37371 5.15589 6.30101 5.10109C6.22831 5.04628 6.14202 5.01237 6.05146 5.003C5.96089 4.99364 5.86949 5.00918 5.78711 5.04795C5.70473 5.08672 5.6345 5.14724 5.584 5.223L3.732 8H0.5C0.367392 8 0.240215 8.05268 0.146447 8.14644C0.0526784 8.24021 0 8.36739 0 8.5C0 8.63261 0.0526784 8.75978 0.146447 8.85355C0.240215 8.94732 0.367392 9 0.5 9H4C4.08234 8.99995 4.1634 8.97958 4.23597 8.94067C4.30854 8.90177 4.37038 8.84555 4.416 8.777L5.889 6.568L7.536 10.686C7.57479 10.7828 7.64289 10.8651 7.73076 10.9213C7.81862 10.9774 7.92186 11.0048 8.02602 10.9994C8.13018 10.994 8.23004 10.9561 8.31162 10.8911C8.39321 10.8262 8.45243 10.7373 8.481 10.637L10.079 5.044L11.536 8.686C11.5731 8.77868 11.6372 8.85813 11.7199 8.91409C11.8026 8.97005 11.9001 8.99997 12 9H15.5C15.6326 9 15.7598 8.94732 15.8536 8.85355C15.9473 8.75978 16 8.63261 16 8.5C16 8.36739 15.9473 8.24021 15.8536 8.14644C15.7598 8.05268 15.6326 8 15.5 8H12.338L10.464 3.314Z" fill="#FF3B3B"/>
</g>
<defs>
<clipPath id="clip0_221_30">
<rect width="16" height="16" fill="white"/>
</clipPath>
</defs>
</svg>
